<?xml version="1.0"?>
<svg xmlns="http://www.w3.org/2000/svg" xmlns:xlink="http://www.w3.org/1999/xlink" version="1.1" id="Capa_1" x="0px" y="0px" viewBox="0 0 512 512" style="enable-background:new 0 0 512 512;" xml:space="preserve" width="512px" height="512px"><g><g>
	<g>
		<path d="M447.495,60.635H64.505C28.936,60.635,0,89.572,0,125.14v145.136c0,35.568,28.936,64.505,64.505,64.505h382.991    c35.568,0,64.505-28.936,64.505-64.505V125.14C512,89.572,483.064,60.635,447.495,60.635z M398.109,304.544H113.891v-4.539    c0-18.616,15.144-33.761,33.761-33.761h216.695c18.617,0,33.761,15.146,33.761,33.761V304.544z M481.763,270.276    c0,18.896-15.372,34.268-34.268,34.268h-19.15v-4.539c0-35.288-28.709-63.998-63.998-63.998H147.652    c-35.289,0-63.998,28.71-63.998,63.998v4.539h-19.15c-18.896,0-34.268-15.372-34.268-34.268V125.14    c0-18.896,15.372-34.268,34.268-34.268h382.991c18.896,0,34.268,15.372,34.268,34.268V270.276z" data-original="#000000" class="active-path" data-old_color="#000000" fill="#69BB7B"/>
	</g>
</g><g>
	<g>
		<path d="M429.35,118.085h-19.281c-8.349,0-15.118,6.769-15.118,15.118c0,8.349,6.769,15.118,15.118,15.118h19.281    c8.349,0,15.118-6.769,15.118-15.118C444.469,124.854,437.7,118.085,429.35,118.085z" data-original="#000000" class="active-path" data-old_color="#000000" fill="#69BB7B"/>
	</g>
</g><g>
	<g>
		<path d="M356.783,118.085h-19.281c-8.349,0-15.118,6.769-15.118,15.118c0,8.349,6.769,15.118,15.118,15.118h19.281    c8.349,0,15.118-6.769,15.118-15.118C371.901,124.854,365.132,118.085,356.783,118.085z" data-original="#000000" class="active-path" data-old_color="#000000" fill="#69BB7B"/>
	</g>
</g><g>
	<g>
		<path d="M256,350.05c-8.349,0-15.118,6.769-15.118,15.118v71.078c0,8.349,6.769,15.118,15.118,15.118    c8.349,0,15.118-6.769,15.118-15.118v-71.078C271.118,356.819,264.349,350.05,256,350.05z" data-original="#000000" class="active-path" data-old_color="#000000" fill="#69BB7B"/>
	</g>
</g><g>
	<g>
		<path d="M343.683,421.128c-14.035,0-25.452-11.418-25.452-25.452v-30.508c0-8.349-6.769-15.118-15.118-15.118    s-15.118,6.769-15.118,15.118v30.508c0,30.707,24.982,55.689,55.689,55.689c8.349,0,15.118-6.769,15.118-15.118    C358.801,427.897,352.032,421.128,343.683,421.128z" data-original="#000000" class="active-path" data-old_color="#000000" fill="#69BB7B"/>
	</g>
</g><g>
	<g>
		<path d="M208.887,350.05c-8.349,0-15.118,6.769-15.118,15.118v30.508c0,14.035-11.417,25.452-25.452,25.452    c-8.349,0-15.118,6.769-15.118,15.118c0,8.349,6.769,15.118,15.118,15.118c30.707,0,55.689-24.982,55.689-55.689v-30.508    C224.006,356.819,217.237,350.05,208.887,350.05z" data-original="#000000" class="active-path" data-old_color="#000000" fill="#69BB7B"/>
	</g>
</g></g> </svg>
