<?xml version="1.0"?>
<svg xmlns="http://www.w3.org/2000/svg" id="Capa_1" enable-background="new 0 0 512 512" height="512px" viewBox="0 0 512 512" width="512px"><g><g><path d="m467 61h-422c-24.813 0-45 20.187-45 45v268c0 24.813 20.187 45 45 45h20v17c0 8.284 6.716 15 15 15s15-6.716 15-15v-17h322v17c0 8.284 6.716 15 15 15s15-6.716 15-15v-17h20c24.813 0 45-20.187 45-45v-268c0-24.813-20.187-45-45-45zm-114 328h-308c-8.271 0-15-6.729-15-15v-268c0-8.271 6.729-15 15-15h308zm129-15c0 8.271-6.729 15-15 15h-84v-226h99zm0-241h-99v-42h84c8.271 0 15 6.729 15 15z" data-original="#000000" class="active-path" data-old_color="#000000" fill="#69BB7B"/><path d="m417.29 342.93c1.687 8.128 9.341 13.335 17.64 11.78 8.15-1.698 13.327-9.379 11.78-17.64-1.886-9.001-10.845-13.919-19.061-11.42-7.713 2.462-11.756 9.816-10.359 17.28z" data-original="#000000" class="active-path" data-old_color="#000000" fill="#69BB7B"/><path d="m417.29 278.93c1.687 8.128 9.341 13.335 17.64 11.78 8.15-1.698 13.327-9.379 11.78-17.64-1.887-9.003-10.846-13.918-19.061-11.42-7.713 2.462-11.756 9.816-10.359 17.28z" data-original="#000000" class="active-path" data-old_color="#000000" fill="#69BB7B"/><path d="m417.29 214.93c1.687 8.128 9.341 13.335 17.64 11.78 8.15-1.698 13.327-9.379 11.78-17.64-1.887-9.003-10.846-13.918-19.061-11.42-7.713 2.462-11.756 9.816-10.359 17.28z" data-original="#000000" class="active-path" data-old_color="#000000" fill="#69BB7B"/><path d="m110 355h164c24.813 0 45-20.187 45-45v-140c0-24.813-20.187-45-45-45h-164c-24.813 0-45 20.187-45 45v140c0 24.813 20.187 45 45 45zm-15-185c0-8.271 6.729-15 15-15h164c8.271 0 15 6.729 15 15v140c0 8.271-6.729 15-15 15h-164c-8.271 0-15-6.729-15-15z" data-original="#000000" class="active-path" data-old_color="#000000" fill="#69BB7B"/></g></g> </svg>
